{
  "accessors": [
    {
      "bufferView": 2,
      "componentType": 5126,
      "count": 135,
      "max": [
        95.43309020996094,
        16.491928100585938,
        93.0403823852539
      ],
      "min": [
        -95.4330825805664,
        0.0,
        -93.0403823852539
      ],
      "type": "VEC3"
    },
    {
      "bufferView": 2,
      "byteOffset": 1620,
      "componentType": 5126,
      "count": 135,
      "max": [
        0.9414467811584473,
        1.0,
        0.917843222618103
      ],
      "min": [
        -0.93662428855896,
        0.2566777169704437,
        -0.9178430438041687
      ],
      "type": "VEC3"
    },
    {
      "bufferView": 1,
      "componentType": 5126,
      "count": 135,
      "max": [
        0.9778819680213928,
        0.9903296232223511
      ],
      "min": [
        0.022117912769317627,
        0.00949186086654663
      ],
      "type": "VEC2"
    },
    {
      "bufferView": 0,
      "componentType": 5125,
      "count": 582,
      "type": "SCALAR"
    }
  ],
  "asset": {
    "extras": {
      "author": "BitGem (https://sketchfab.com/bitgem)",
      "license": "CC-BY-4.0 (http://creativecommons.org/licenses/by/4.0/)",
      "source": "https://sketchfab.com/3d-models/low-poly-hand-painted-dungeon-plinth-ccaa80d7a16444049f420edd4f4378a4",
      "title": "Low Poly Hand Painted Dungeon Plinth"
    },
    "generator": "Sketchfab-12.66.0",
    "version": "2.0"
  },
  "bufferViews": [
    {
      "buffer": 0,
      "byteLength": 2328,
      "name": "floatBufferViews",
      "target": 34963
    },
    {
      "buffer": 0,
      "byteLength": 1080,
      "byteOffset": 2328,
      "byteStride": 8,
      "name": "floatBufferViews",
      "target": 34962
    },
    {
      "buffer": 0,
      "byteLength": 3240,
      "byteOffset": 3408,
      "byteStride": 12,
      "name": "floatBufferViews",
      "target": 34962
    }
  ],
  "buffers": [
    {
      "byteLength": 6648,
      "uri": "scene.bin"
    }
  ],
  "images": [
    {
      "uri": "textures/plinth_mat_baseColor.png"
    },
    {
      "uri": "textures/plinth_mat_metallicRoughness.png"
    }
  ],
  "materials": [
    {
      "doubleSided": true,
      "name": "plinth_mat",
      "pbrMetallicRoughness": {
        "baseColorTexture": {
          "index": 0
        },
        "metallicRoughnessTexture": {
          "index": 1
        }
      }
    }
  ],
  "meshes": [
    {
      "name": "plinth_circular_01_plinth_mat_0",
      "primitives": [
        {
          "attributes": {
            "NORMAL": 1,
            "POSITION": 0,
            "TEXCOORD_0": 2
          },
          "indices": 3,
          "material": 0,
          "mode": 4
        }
      ]
    }
  ],
  "nodes": [
    {
      "children": [
        1
      ],
      "matrix": [
        1.0,
        0.0,
        0.0,
        0.0,
        0.0,
        2.220446049250313e-16,
        -1.0,
        0.0,
        0.0,
        1.0,
        2.220446049250313e-16,
        0.0,
        0.0,
        0.0,
        0.0,
        1.0
      ],
      "name": "Sketchfab_model"
    },
    {
      "children": [
        2
      ],
      "matrix": [
        1.0,
        0.0,
        0.0,
        0.0,
        0.0,
        0.0,
        1.0,
        0.0,
        0.0,
        -1.0,
        0.0,
        0.0,
        0.0,
        0.0,
        0.0,
        1.0
      ],
      "name": "e708f294b4d443928fa65bd64aff41ef.fbx"
    },
    {
      "children": [
        3
      ],
      "name": "RootNode"
    },
    {
      "children": [
        4
      ],
      "name": "plinth_circular_01"
    },
    {
      "mesh": 0,
      "name": "plinth_circular_01_plinth_mat_0"
    }
  ],
  "samplers": [
    {
      "magFilter": 9729,
      "minFilter": 9987,
      "wrapS": 10497,
      "wrapT": 10497
    }
  ],
  "scene": 0,
  "scenes": [
    {
      "name": "Sketchfab_Scene",
      "nodes": [
        0
      ]
    }
  ],
  "textures": [
    {
      "sampler": 0,
      "source": 0
    },
    {
      "sampler": 0,
      "source": 1
    }
  ]
}
